<?xml version="1.0" encoding="utf-8"?>
<svg id="master-artboard" viewBox="0 0 150 70" version="1.1" xmlns="http://www.w3.org/2000/svg" x="0px" y="0px" style="enable-background:new 0 0 1400 980;" width="150px" height="70px"><defs><path id="text-path-0" d="M 53.64313507080078 43.097312927246094 A 100 100 0 0 1 141.76498413085938 43.097312927246094 A 100 100 0 0 1 53.64313507080078 43.097312927246094 Z" style="fill: none; stroke: red; stroke-width: 2;"/></defs><rect id="ee-background" x="0" y="0" width="150" height="70" style="fill: rgb(7, 7, 7); fill-opacity: 0.92; pointer-events: none;"/><g transform="matrix(0.31979078054428106, 0, 0, 0.319790780544281, -108.17040503765153, -154.48725389969596)"><g transform="matrix(1, 0, 0, 1, 0, 0)"><g transform="matrix(1, 0, 0, 1, 1.1368683772161603e-13, 0)">
		<g>
			<path class="st20" d="M431.7,634.6l-45.4-2.4l-8,6.3c0,0,41.9,8,53.4,8c0,0,0,0,0,0L431.7,634.6L431.7,634.6z" style="fill: rgb(255, 196, 32);"/>
			<path class="st22" d="M477.1,632.2l-45.4,2.4v11.9c11.5,0,53.4-8,53.4-8L477.1,632.2z" style="fill: rgb(252, 160, 13);"/>
		</g>
		<path class="st21" d="M422.8,549.7c0,4.2,2.9,7.7,6.8,8.7c-1.6,12.7-3.9,30.8-6.2,36.5c-2.9,7.1-6.4,13.6-10.1,16.1&#10;&#9;&#9;&#9;c-4.4-14.4-19-37-32.5-50c0.7-1.3,1.2-2.8,1.2-4.4c0-5-4-9-9-9c-5,0-9,4-9,9c0,5,4,9,9,9c1.7,0,3.2-0.5,4.5-1.3&#10;&#9;&#9;&#9;c10.2,17,15.8,43.8,13.3,61.3c0.1,0,0.2,0,0.5,0l0,0h40.5v-85C426.8,540.8,422.8,544.8,422.8,549.7z" style="fill: rgb(254, 241, 66);"/>
		<path class="st20" d="M472.1,625.7c0.2,0,0.4,0,0.5,0c-2.5-17.7,2.9-45.1,13.3-62c1.3,0.8,2.8,1.2,4.5,1.2c5,0,9-4,9-9&#10;&#9;&#9;&#9;c0-5-4-9-9-9c-4.9,0-9,4-9,9c0,2,0.7,3.8,1.7,5.3c-13.1,13-27.8,35.4-31.9,49.6c-4.1-3.4-8.5-8.6-11.2-16.9&#10;&#9;&#9;&#9;c-1.7-5.2-4.2-22.9-6.1-35.5c3.9-1,6.8-4.5,6.8-8.7c0-5-4-9-9-9c0,0,0,0,0,0v85L472.1,625.7L472.1,625.7z" style="fill: rgb(255, 196, 32);"/>
		<path class="st21" d="M391.3,628c0,5,5,9.2,11.1,9.2h29.3V628C413.9,628,396.1,628,391.3,628z" style="fill: rgb(254, 241, 66);"/>
		<path class="st20" d="M472,628c-4.3,0-22.3,0-40.3,0v9.2h29.1C467,637.2,472,633.1,472,628z" style="fill: rgb(255, 196, 32);"/>
	</g></g></g><path d="M 61.466800689697266 36.64429473876953 C 61.82794952392578 37.51936721801758 61.77982711791992 38.32895278930664 61.32243728637695 39.07305145263672 C 60.871212005615234 39.81460952758789 60.05707931518555 40.42827224731445 58.88004684448242 40.914039611816406 C 57.629066467285156 41.43032455444336 56.57400894165039 41.63496780395508 55.71487808227539 41.527957916259766 L 55.169342041015625 40.20610809326172 C 55.71330642700195 40.24845886230469 56.27081298828125 40.22752380371094 56.84187316894531 40.1432991027832 C 57.41292953491211 40.05907440185547 57.93879318237305 39.91777420043945 58.41946792602539 39.719398498535156 C 59.16512680053711 39.411659240722656 59.68991470336914 39.058048248291016 59.993831634521484 38.6585578918457 C 60.295204162597656 38.25291061401367 60.346702575683594 37.80974578857422 60.1483268737793 37.32907485961914 C 59.9957275390625 36.95932388305664 59.70579528808594 36.71116256713867 59.27853012084961 36.584590911865234 C 58.857425689697266 36.455474853515625 58.110931396484375 36.402950286865234 57.03904724121094 36.42702102661133 C 56.02918243408203 36.46155548095703 55.29286193847656 36.433685302734375 54.8300895690918 36.34340286254883 C 54.36115264892578 36.25566101074219 53.97247314453125 36.09152603149414 53.66405487060547 35.85099411010742 C 53.352012634277344 35.619171142578125 53.108253479003906 35.290653228759766 52.93276596069336 34.865440368652344 C 52.61485290527344 34.095130920410156 52.676815032958984 33.36277389526367 53.11865234375 32.668365478515625 C 53.564109802246094 31.965251922607422 54.32913589477539 31.38988494873047 55.41373062133789 30.9422664642334 C 56.42437744140625 30.525165557861328 57.49738311767578 30.320329666137695 58.63275146484375 30.3277587890625 L 58.60502624511719 31.702287673950195 C 57.5019416809082 31.703174591064453 56.56832504272461 31.86130142211914 55.804176330566406 32.17667007446289 C 55.126304626464844 32.4564323425293 54.661136627197266 32.77101516723633 54.40867233276367 33.120418548583984 C 54.15004348754883 33.47237014770508 54.09830093383789 33.836299896240234 54.253440856933594 34.21220779418945 C 54.35517501831055 34.458709716796875 54.50762176513672 34.64460754394531 54.71078872680664 34.76991271972656 C 54.91395568847656 34.89521408081055 55.19034194946289 34.9794807434082 55.539939880371094 35.0227165222168 C 55.88954162597656 35.065948486328125 56.53337478637695 35.0706901550293 57.47144317626953 35.03693771362305 C 58.75470733642578 34.98332595825195 59.67873764038086 35.08157730102539 60.24353790283203 35.33169174194336 C 60.79963302612305 35.578189849853516 61.2073860168457 36.015724182128906 61.466800689697266 36.64429473876953 ZM 72.41526794433594 36.090023040771484 L 70.60498046875 29.763944625854492 C 70.37754821777344 28.969179153442383 70.02522277832031 28.42858123779297 69.54800415039062 28.142152786254883 C 69.07535552978516 27.847482681274414 68.4512710571289 27.811111450195312 67.67573547363281 28.03304100036621 C 66.65023040771484 28.326501846313477 65.98103332519531 28.823108673095703 65.66813659667969 29.522863388061523 C 65.35340881347656 30.216205596923828 65.37762451171875 31.19740867614746 65.74078369140625 32.466468811035156 L 67.20442199707031 37.58116912841797 L 65.7238540649414 38.00485610961914 L 61.751121520996094 24.122095108032227 L 63.231693267822266 23.69841194152832 L 64.43396759033203 27.89977264404297 C 64.57886505126953 28.40611457824707 64.67656707763672 28.83234977722168 64.7270736694336 29.178478240966797 L 64.8135986328125 29.153717041015625 C 64.97454071044922 28.60146141052246 65.28569030761719 28.11370086669922 65.7470474243164 27.690441131591797 C 66.20840454101562 27.26717758178711 66.781982421875 26.957420349121094 67.46778869628906 26.76116943359375 C 68.66635131835938 26.41818618774414 69.64436340332031 26.44342041015625 70.40184020996094 26.83687400817871 C 71.1611557006836 27.236736297607422 71.71780395507812 28.05517578125 72.07179260253906 29.29218864440918 L 73.89583587646484 35.66633605957031 L 72.41526794433594 36.090023040771484 ZM 84.055419921875 33.77945327758789 L 83.52046203613281 32.39655303955078 L 83.45133972167969 32.40760040283203 C 83.04544830322266 33.1205940246582 82.61351776123047 33.62846374511719 82.15555572509766 33.93120193481445 C 81.6910171508789 34.234989166259766 81.08679962158203 34.44633483886719 80.34290313720703 34.56522750854492 C 79.3488540649414 34.72410583496094 78.52772521972656 34.592044830322266 77.87950897216797 34.16904830932617 C 77.23129272460938 33.74605178833008 76.83142852783203 33.060569763183594 76.67991638183594 32.11260223388672 C 76.35584259033203 30.085002899169922 77.80865478515625 28.762470245361328 81.0383529663086 28.14500617980957 L 82.72732543945312 27.814298629760742 L 82.62789154052734 27.19219398498535 C 82.502685546875 26.408803939819336 82.24222564697266 25.856321334838867 81.84651184082031 25.534744262695312 C 81.44422149658203 25.214218139648438 80.87112426757812 25.1134033203125 80.12723541259766 25.232297897338867 C 79.29117584228516 25.365922927856445 78.38753509521484 25.773651123046875 77.41630554199219 26.455480575561523 L 76.75608825683594 25.366025924682617 C 77.20668029785156 25.01720428466797 77.71611785888672 24.719741821289062 78.2844009399414 24.473634719848633 C 78.8526840209961 24.227529525756836 79.43305969238281 24.057126998901367 80.02554321289062 23.962432861328125 C 81.21708679199219 23.771989822387695 82.14459991455078 23.893798828125 82.80809020996094 24.327857971191406 C 83.47262573242188 24.76849937438965 83.89854431152344 25.574716567993164 84.08582305908203 26.746511459350586 L 85.1811294555664 33.59953308105469 L 84.055419921875 33.77945327758789 M 80.44700622558594 33.25234603881836 C 81.38838958740234 33.10188674926758 82.09124755859375 32.72624969482422 82.55558013916016 32.12543487548828 C 83.01227569580078 31.519092559814453 83.1659164428711 30.748519897460938 83.01651000976562 29.813716888427734 L 82.87130737304688 28.90524673461914 L 81.36007690429688 29.20754623413086 C 80.1561508178711 29.44722557067871 79.31439971923828 29.777549743652344 78.83483123779297 30.19851303100586 C 78.35420227050781 30.61289405822754 78.17018127441406 31.17228126525879 78.28276824951172 31.87667465209961 C 78.3700942993164 32.423072814941406 78.60148620605469 32.814796447753906 78.97693634033203 33.05184555053711 C 79.35791778564453 33.28125762939453 79.84793853759766 33.34809112548828 80.44700622558594 33.25234603881836 ZM 102.19467163085938 32.827247619628906 L 102.1407470703125 26.21746826171875 C 102.13410949707031 25.40416145324707 101.95580291748047 24.795595169067383 101.6058349609375 24.39177131652832 C 101.255859375 23.987947463989258 100.7175521850586 23.788997650146484 99.99090576171875 23.794925689697266 C 99.03093719482422 23.802757263183594 98.3232192993164 24.085206985473633 97.86775207519531 24.642274856567383 C 97.4189453125 25.199289321899414 97.1991958618164 26.04777717590332 97.20849609375 27.1877384185791 L 97.25483703613281 32.867549896240234 L 95.71488189697266 32.8801155090332 L 95.66095733642578 26.270334243774414 C 95.65432739257812 25.457027435302734 95.47602081298828 24.848461151123047 95.12604522705078 24.444637298583984 C 94.77607727050781 24.04081153869629 94.23443603515625 23.841890335083008 93.5011215209961 23.84787368774414 C 92.53449249267578 23.85576057434082 91.83021545410156 24.15151596069336 91.38829040527344 24.735139846801758 C 90.93970489501953 25.318819046020508 90.72079467773438 26.27063751220703 90.7315673828125 27.590593338012695 L 90.7750473022461 32.920413970947266 L 89.23509979248047 32.932979583740234 L 89.15213012695312 22.763317108154297 L 90.4120864868164 22.75303840637207 L 90.67342376708984 24.140953063964844 L 90.74341583251953 24.140382766723633 C 91.03271484375 23.644670486450195 91.4395523071289 23.25467300415039 91.96391296386719 22.970386505126953 C 92.48833465576172 22.692764282226562 93.08053588867188 22.55126190185547 93.74050903320312 22.54587745666504 C 95.3271255493164 22.53293228149414 96.3684310913086 23.097789764404297 96.86444091796875 24.240447998046875 L 96.9444351196289 24.239795684814453 C 97.24007415771484 23.70403289794922 97.67330169677734 23.28048324584961 98.24411010742188 22.969148635864258 C 98.82159423828125 22.657760620117188 99.47698974609375 22.499074935913086 100.21029663085938 22.493093490600586 C 101.36358642578125 22.48368263244629 102.22928619384766 22.76996421813965 102.80738830566406 23.3519344329834 C 103.37887573242188 23.940624237060547 103.669921875 24.88494873046875 103.68052673339844 26.184904098510742 L 103.734619140625 32.8146858215332 L 102.19467163085938 32.827247619628906 ZM 117.24793243408203 29.5240535736084 C 117.00624084472656 31.159626007080078 116.40498352050781 32.37815475463867 115.44416046142578 33.17963790893555 C 114.47674560546875 33.98014831542969 113.267578125 34.27320098876953 111.8166732788086 34.05879592895508 C 110.91314697265625 33.9252815246582 110.14303588867188 33.595829010009766 109.50633239746094 33.07044219970703 C 108.87622833251953 32.54602813720703 108.42839050292969 31.85985565185547 108.16282653808594 31.011924743652344 C 107.90386199951172 30.164968490600586 107.85234069824219 29.213886260986328 108.00827026367188 28.15867805480957 C 108.25093841552734 26.516511917114258 108.8488998413086 25.297496795654297 109.80215454101562 24.501630783081055 C 110.75442504882812 23.712360382080078 111.95932006835938 23.425416946411133 113.41682434082031 23.640796661376953 C 114.82816314697266 23.849355697631836 115.8768310546875 24.4827938079834 116.56282043457031 25.541112899780273 C 117.25540924072266 26.600404739379883 117.48377990722656 27.92805290222168 117.24793243408203 29.5240535736084 M 109.58119201660156 28.39111328125 C 109.39212036132812 29.67055320739746 109.50460815429688 30.687925338745117 109.91864013671875 31.443233489990234 C 110.33364868164062 32.19194412231445 111.03907775878906 32.6398811340332 112.03492736816406 32.78704071044922 C 113.0373764038086 32.935176849365234 113.84551239013672 32.71090316772461 114.4593276977539 32.114227294921875 C 115.07315063476562 31.517547607421875 115.47508239746094 30.576190948486328 115.66512298583984 29.290157318115234 C 115.85418701171875 28.010717391967773 115.74073028564453 26.99993896484375 115.32475280761719 26.257823944091797 C 114.90876770019531 25.51570701599121 114.19295501708984 25.06960678100586 113.17732238769531 24.91952133178711 C 112.18146514892578 24.772361755371094 111.38090515136719 24.99101448059082 110.77562713623047 25.575475692749023 C 110.17132568359375 26.153343200683594 109.77317810058594 27.091890335083008 109.58119201660156 28.39111328125 ZM 129.8632049560547 32.729496002197266 C 129.4213409423828 34.322689056396484 128.67417907714844 35.457618713378906 127.62171173095703 36.1342887878418 C 126.56282806396484 36.809173583984375 125.32672119140625 36.950626373291016 123.91340637207031 36.55864715576172 C 123.03329467773438 36.31454849243164 122.30977630615234 35.892494201660156 121.74284362792969 35.29248809814453 C 121.18234252929688 34.69425964355469 120.82269287109375 33.95802307128906 120.66389465332031 33.08378601074219 C 120.51152801513672 32.211326599121094 120.577880859375 31.26116371154785 120.86295318603516 30.23329734802246 C 121.30660247802734 28.63368034362793 122.0505599975586 27.497859954833984 123.09481048583984 26.825834274291992 C 124.13729095458984 26.160234451293945 125.36839294433594 26.024314880371094 126.78813934326172 26.418075561523438 C 128.16290283203125 26.799365997314453 129.12530517578125 27.557483673095703 129.67532348632812 28.692432403564453 C 130.23175048828125 29.829160690307617 130.2943878173828 31.174848556518555 129.8632049560547 32.729496002197266 M 122.3951187133789 30.658239364624023 C 122.0494613647461 31.90452766418457 122.03541564941406 32.92800521850586 122.35298156738281 33.728668212890625 C 122.67233276367188 34.52290725708008 123.31703186035156 35.05454635620117 124.28707885742188 35.32358932495117 C 125.26355743408203 35.59440994262695 126.09320068359375 35.471675872802734 126.7760238647461 34.955387115478516 C 127.45884704589844 34.43909454345703 127.9739761352539 33.554595947265625 128.3214111328125 32.301883697509766 C 128.6670684814453 31.05559539794922 128.6793212890625 30.038543701171875 128.3582000732422 29.250728607177734 C 128.0370635986328 28.462913513183594 127.38184356689453 27.931812286376953 126.39251708984375 27.657424926757812 C 125.42247009277344 27.388385772705078 124.60102844238281 27.50647735595703 123.92819213867188 28.011699676513672 C 123.25714111328125 28.510499954223633 122.7461166381836 29.39267921447754 122.3951187133789 30.658239364624023 ZM 135.2796630859375 34.58026123046875 C 135.66998291015625 34.328948974609375 136.23397827148438 34.02241134643555 136.97164916992188 33.660648345947266 L 141.32217407226562 31.67528533935547 L 143.01693725585938 32.36570358276367 L 137.5677947998047 34.82133865356445 L 139.4486083984375 41.8935546875 L 137.716796875 41.18804931640625 L 136.20680236816406 35.37908172607422 L 134.75148010253906 35.876800537109375 L 133.3178253173828 39.3959846496582 L 131.91014099121094 38.8225212097168 L 137.35801696777344 25.449630737304688 L 138.7657012939453 26.023090362548828 L 135.87576293945312 33.11701965332031 C 135.7474822998047 33.4318962097168 135.5271759033203 33.91083908081055 135.21482849121094 34.55385208129883 L 135.2796630859375 34.58026123046875 Z" transform="matrix(1.01704740524292, 0, 0, 1.01704740524292, -1.6648249626159668, 3.395930767059326)" style="fill: rgb(207, 191, 54); white-space: pre; color: rgb(51, 51, 51);"/></svg>